<?xml version="1.0" encoding="UTF-8"?>
<svg width="1024px" height="180px" viewBox="0 0 1024 180" version="1.1" xmlns="http://www.w3.org/2000/svg" xmlns:xlink="http://www.w3.org/1999/xlink">
    <!-- Generator: Sketch 41.2 (35397) - http://www.bohemiancoding.com/sketch -->
    <title>Group 2</title>
    <desc>Created with Sketch.</desc>
    <defs></defs>
    <g id="Page-1" stroke="none" stroke-width="1" fill="none" fill-rule="evenodd" stroke-linecap="square">
        <g id="Landing" transform="translate(0.000000, -2305.000000)">
            <g id="Group-2" transform="translate(-57.000000, 2304.000000)">
                <polyline id="Line" stroke="#BB8CE2" stroke-width="2" points="54 180.997223 131.852643 128.279632 150.13048 136.669018 164.634138 132.987202 196.207305 133.232379 228.95875 124.750906 300.965417 96.1815134 323.848793 104.567409 362.662162 107.563559 431.816158 61.0131105 449.777128 161.116107 474.68373 143.538139 487.187417 128.312211 497.357807 140.371611 534.047176 100.943771 575.883755 73.6750653 687.998345 67.5871875 736.625519 88.1280613 794.43085 82.1939387 816.725088 86.7941304 842.422375 87.0434633 907.204344 83.8686246 928.576116 87.670951 981.2885 95.8573806 1043.03951 67.0885217 1083.55052 17.4962117"></polyline>
                <polyline id="Line-Copy-5" stroke="#80EDF6" stroke-width="3" points="-5.68434189e-14 173.073875 81.93602 117.591242 101.172531 126.420652 116.436906 122.545725 149.666089 122.803762 184.135349 113.877434 259.918771 83.8095749 284.002382 92.6353117 324.851515 95.7886101 397.632643 46.7965868 416.535667 152.149992 442.748622 133.650059 455.908129 117.62553 466.611956 130.317446 505.225686 88.8216137 549.256596 60.122662 667.251604 53.7154745 718.429278 75.3337187 779.266502 69.088351 802.730074 73.929823 829.775186 74.1922334 897.954974 70.8508742 920.447696 74.852633 975.924849 83.4684414 1040.9147 53.1906537 1083.55052 0.997223418"></polyline>
            </g>
        </g>
    </g>
</svg>